<?xml version="1.0" standalone="no"?>
<!DOCTYPE svg PUBLIC "-//W3C//DTD SVG 20010904//EN"
 "http://www.w3.org/TR/2001/REC-SVG-20010904/DTD/svg10.dtd">
<svg version="1.0" xmlns="http://www.w3.org/2000/svg"
 width="640.000000pt" height="640.000000pt" viewBox="0 0 640.000000 640.000000"
 preserveAspectRatio="xMidYMid meet">
<metadata>
Created by potrace 1.16, written by Peter Selinger 2001-2019
</metadata>
<g transform="translate(0.000000,640.000000) scale(0.100000,-0.100000)"
fill="#000000" stroke="none">
<path d="M1825 5243 c-267 -42 -533 -203 -695 -417 -52 -69 -52 -100 0 -104
26 -2 63 11 145 52 254 125 571 188 1040 205 220 8 255 15 255 53 0 29 -75 99
-141 132 -107 52 -238 77 -414 81 -88 2 -173 1 -190 -2z"/>
<path d="M4235 5240 c-100 -16 -237 -59 -293 -93 -62 -37 -112 -89 -112 -117
0 -36 37 -43 255 -51 469 -17 781 -79 1037 -205 84 -41 122 -54 148 -52 52 4
52 35 0 104 -137 182 -365 335 -585 394 -92 25 -346 36 -450 20z"/>
<path d="M1650 4219 c-89 -11 -227 -52 -317 -94 -306 -142 -533 -430 -597
-761 -23 -120 -16 -332 17 -454 103 -394 420 -690 829 -774 112 -23 327 -21
447 4 570 120 936 675 820 1243 -110 542 -637 909 -1199 836z m232 -79 c254
-26 454 -118 631 -289 163 -158 258 -338 298 -566 36 -209 -28 -479 -158 -664
-59 -85 -192 -221 -264 -271 -185 -126 -445 -202 -646 -186 -316 24 -590 171
-770 414 -75 102 -116 181 -152 295 -183 577 241 1193 870 1266 103 12 94 12
191 1z"/>
<path d="M1710 3495 c-75 -21 -151 -76 -193 -138 -49 -73 -60 -116 -55 -211 6
-101 35 -164 108 -229 73 -66 143 -90 250 -85 139 6 233 66 292 186 29 60 33
76 33 152 0 73 -4 93 -28 141 -72 148 -249 227 -407 184z"/>
<path d="M4460 4220 c-169 -24 -381 -111 -511 -209 -167 -127 -303 -316 -369
-511 -69 -204 -67 -458 4 -666 118 -348 428 -620 790 -695 117 -24 334 -26
444 -3 287 59 535 225 688 459 110 169 161 327 171 526 29 590 -431 1082
-1032 1104 -66 2 -149 0 -185 -5z m395 -110 c190 -47 333 -129 476 -270 136
-135 218 -277 263 -455 34 -133 41 -231 26 -341 -32 -227 -121 -406 -284 -572
-440 -450 -1175 -400 -1553 106 -134 179 -194 356 -194 572 0 384 227 728 593
900 213 99 436 119 673 60z"/>
<path d="M4523 3496 c-193 -49 -305 -255 -239 -444 22 -66 101 -154 170 -190
46 -24 61 -27 156 -27 96 0 110 3 158 28 69 36 129 99 161 167 20 44 25 71 26
135 0 93 -27 164 -90 234 -77 85 -224 127 -342 97z"/>
<path d="M2590 1368 c-117 -59 -117 -227 0 -285 l44 -23 566 0 566 0 44 23
c50 25 90 88 90 142 0 54 -40 117 -90 143 l-44 22 -566 0 -566 0 -44 -22z"/>
</g>
</svg>
